<?xml version="1.0" encoding="UTF-8" standalone="no"?>
<!DOCTYPE svg PUBLIC "-//W3C//DTD SVG 1.1//EN"
 "http://www.w3.org/Graphics/SVG/1.1/DTD/svg11.dtd">
<!-- Generated by graphviz version 2.42.4 (0)
 -->
<!-- Title: G Pages: 1 -->
<svg width="1045pt" height="151pt"
 viewBox="0.00 0.00 1045.30 150.80" xmlns="http://www.w3.org/2000/svg" xmlns:xlink="http://www.w3.org/1999/xlink">
<g id="graph0" class="graph" transform="scale(1 1) rotate(0) translate(14.4 136.4)">
<title>G</title>
<!-- registry -->
<g id="node1" class="node">
<title>registry</title>
<polygon fill="#000000" stroke="#404040" points="420.5,-118 133.5,-118 133.5,-82 420.5,-82 420.5,-118"/>
<text text-anchor="middle" x="277" y="-103.2" font-family="Courier,monospace" font-size="11.00" fill="#00ff00">CANONICAL STATE</text>
<text text-anchor="middle" x="277" y="-91.2" font-family="Courier,monospace" font-size="11.00" fill="#00ff00">parameters · actions · mappings · routes</text>
</g>
<!-- preset -->
<g id="node2" class="node">
<title>preset</title>
<polygon fill="#d4d0c8" stroke="#404040" points="416.5,-36 231.5,-36 231.5,0 416.5,0 416.5,-36"/>
<text text-anchor="middle" x="324" y="-21.2" font-family="Courier,monospace" font-size="11.00">PRESET</text>
<text text-anchor="middle" x="324" y="-9.2" font-family="Courier,monospace" font-size="11.00">scoped artistic condition</text>
</g>
<!-- registry&#45;&gt;preset -->
<g id="edge1" class="edge">
<title>registry&#45;&gt;preset</title>
<path fill="none" stroke="#b61718" stroke-width="1.4" d="M287.2,-81.64C293.52,-70.87 301.77,-56.85 308.85,-44.79"/>
<polygon fill="#b61718" stroke="#b61718" stroke-width="1.4" points="311.94,-46.45 313.98,-36.05 305.9,-42.9 311.94,-46.45"/>
</g>
<!-- snap -->
<g id="node3" class="node">
<title>snap</title>
<polygon fill="#d4d0c8" stroke="#404040" points="946.5,-36 747.5,-36 747.5,0 946.5,0 946.5,-36"/>
<text text-anchor="middle" x="847" y="-21.2" font-family="Courier,monospace" font-size="11.00">SNAPSHOT</text>
<text text-anchor="middle" x="847" y="-9.2" font-family="Courier,monospace" font-size="11.00">broad machine&#45;state capture</text>
</g>
<!-- registry&#45;&gt;snap -->
<g id="edge2" class="edge">
<title>registry&#45;&gt;snap</title>
<path fill="none" stroke="#b61718" stroke-width="1.4" d="M402.07,-82C515.01,-66.6 672.74,-45.01 735,-36 735.77,-35.89 736.54,-35.78 737.31,-35.67"/>
<polygon fill="#b61718" stroke="#b61718" stroke-width="1.4" points="738.08,-39.09 747.47,-34.18 737.07,-32.16 738.08,-39.09"/>
</g>
<!-- seq -->
<g id="node4" class="node">
<title>seq</title>
<polygon fill="#d4d0c8" stroke="#404040" points="206,-36 0,-36 0,0 206,0 206,-36"/>
<text text-anchor="middle" x="103" y="-21.2" font-family="Courier,monospace" font-size="11.00">SEQUENCE</text>
<text text-anchor="middle" x="103" y="-9.2" font-family="Courier,monospace" font-size="11.00">timed events + interpolation</text>
</g>
<!-- registry&#45;&gt;seq -->
<g id="edge3" class="edge">
<title>registry&#45;&gt;seq</title>
<path fill="none" stroke="#b61718" stroke-width="1.4" d="M239.67,-81.84C213.3,-69.71 177.76,-53.37 149.53,-40.39"/>
<polygon fill="#b61718" stroke="#b61718" stroke-width="1.4" points="150.81,-37.13 140.27,-36.13 147.89,-43.49 150.81,-37.13"/>
</g>
<!-- proj -->
<g id="node5" class="node">
<title>proj</title>
<polygon fill="#d4d0c8" stroke="#404040" points="722,-36 442,-36 442,0 722,0 722,-36"/>
<text text-anchor="middle" x="582" y="-21.2" font-family="Courier,monospace" font-size="11.00">PROJECT</text>
<text text-anchor="middle" x="582" y="-9.2" font-family="Courier,monospace" font-size="11.00">state + source refs + automation + maps</text>
</g>
<!-- registry&#45;&gt;proj -->
<g id="edge4" class="edge">
<title>registry&#45;&gt;proj</title>
<path fill="none" stroke="#b61718" stroke-width="1.4" d="M342.06,-81.94C390.44,-69.24 456.56,-51.9 507.14,-38.63"/>
<polygon fill="#b61718" stroke="#b61718" stroke-width="1.4" points="508.26,-41.96 517.04,-36.04 506.48,-35.19 508.26,-41.96"/>
</g>
<!-- scopes -->
<g id="node6" class="node">
<title>scopes</title>
<polygon fill="#d4d0c8" stroke="#404040" points="718.5,-122 445.5,-122 445.5,-78 718.5,-78 718.5,-122"/>
<text text-anchor="middle" x="582" y="-109.2" font-family="Courier,monospace" font-size="11.00">RECALL SCOPES</text>
<text text-anchor="middle" x="582" y="-97.2" font-family="Courier,monospace" font-size="11.00">Look · Source · Temporal · Routing</text>
<text text-anchor="middle" x="582" y="-85.2" font-family="Courier,monospace" font-size="11.00">Render · Transport · Automation · Maps</text>
</g>
<!-- scopes&#45;&gt;preset -->
<g id="edge5" class="edge">
<title>scopes&#45;&gt;preset</title>
<path fill="none" stroke="#b61718" stroke-width="1.4" d="M504.41,-74.94C467.52,-63.5 423.93,-49.99 388.84,-39.11"/>
<polygon fill="#b61718" stroke="#b61718" stroke-width="1.4" points="503.63,-78.36 514.21,-77.98 505.7,-71.68 503.63,-78.36"/>
<polygon fill="#b61718" stroke="#b61718" stroke-width="1.4" points="389.77,-35.73 379.18,-36.11 387.69,-42.41 389.77,-35.73"/>
</g>
<!-- scopes&#45;&gt;snap -->
<g id="edge6" class="edge">
<title>scopes&#45;&gt;snap</title>
<path fill="none" stroke="#b61718" stroke-width="1.4" d="M653.32,-74.73C676.14,-67.19 701.56,-59.02 725,-52 739.92,-47.54 755.94,-43.01 771.3,-38.8"/>
<polygon fill="#b61718" stroke="#b61718" stroke-width="1.4" points="652.1,-71.45 643.71,-77.92 654.31,-78.09 652.1,-71.45"/>
<polygon fill="#b61718" stroke="#b61718" stroke-width="1.4" points="772.56,-42.09 781.29,-36.08 770.72,-35.33 772.56,-42.09"/>
</g>
<!-- scopes&#45;&gt;proj -->
<g id="edge7" class="edge">
<title>scopes&#45;&gt;proj</title>
<path fill="none" stroke="#b61718" stroke-width="1.4" d="M582,-67.65C582,-60.6 582,-53.18 582,-46.31"/>
<polygon fill="#b61718" stroke="#b61718" stroke-width="1.4" points="578.5,-67.98 582,-77.98 585.5,-67.98 578.5,-67.98"/>
<polygon fill="#b61718" stroke="#b61718" stroke-width="1.4" points="585.5,-46.11 582,-36.11 578.5,-46.11 585.5,-46.11"/>
</g>
<!-- pixels -->
<g id="node7" class="node">
<title>pixels</title>
<polygon fill="#fff4b0" stroke="#404040" points="1016.5,-118 743.5,-118 743.5,-82 1016.5,-82 1016.5,-118"/>
<text text-anchor="middle" x="880" y="-103.2" font-family="Courier,monospace" font-size="11.00">PERSISTENT GPU PIXELS</text>
<text text-anchor="middle" x="880" y="-91.2" font-family="Courier,monospace" font-size="11.00">identified but not embedded by default</text>
</g>
<!-- pixels&#45;&gt;snap -->
<g id="edge8" class="edge">
<title>pixels&#45;&gt;snap</title>
<path fill="none" stroke="#b61718" stroke-width="1.4" stroke-dasharray="5,2" d="M872.84,-81.64C868.49,-71.09 862.84,-57.39 857.93,-45.51"/>
<polygon fill="#b61718" stroke="#b61718" stroke-width="1.4" points="861.08,-43.96 854.03,-36.05 854.61,-46.63 861.08,-43.96"/>
<text text-anchor="middle" x="906.5" y="-54.8" font-family="Courier,monospace" font-size="9.00">explicit/limited</text>
</g>
<!-- pixels&#45;&gt;proj -->
<g id="edge9" class="edge">
<title>pixels&#45;&gt;proj</title>
<path fill="none" stroke="#b61718" stroke-width="1.4" stroke-dasharray="5,2" d="M816.44,-81.94C769.16,-69.24 704.56,-51.9 655.14,-38.63"/>
<polygon fill="#b61718" stroke="#b61718" stroke-width="1.4" points="656.03,-35.25 645.47,-36.04 654.22,-42.01 656.03,-35.25"/>
<text text-anchor="middle" x="773.5" y="-54.8" font-family="Courier,monospace" font-size="9.00">not automatic</text>
</g>
</g>
</svg>
